<svg width="172" height="48" viewBox="0 0 172 48" fill="none" xmlns="http://www.w3.org/2000/svg">
<path d="M12.846 30V28.65H14.61V18.75H12.846V17.4H17.76C19.416 17.4 20.694 17.82 21.594 18.66C22.506 19.5 22.962 20.79 22.962 22.53V24.87C22.962 26.622 22.506 27.918 21.594 28.758C20.694 29.586 19.416 30 17.76 30H12.846ZM16.122 28.632H17.76C18.984 28.632 19.908 28.332 20.532 27.732C21.156 27.132 21.468 26.202 21.468 24.942V22.476C21.468 21.192 21.156 20.256 20.532 19.668C19.908 19.08 18.984 18.786 17.76 18.786H16.122V28.632ZM25.3755 30V17.4H30.4695C31.2495 17.4 31.9335 17.538 32.5215 17.814C33.1215 18.078 33.5895 18.462 33.9255 18.966C34.2615 19.458 34.4295 20.052 34.4295 20.748V20.946C34.4295 21.774 34.2315 22.428 33.8355 22.908C33.4395 23.388 32.9715 23.712 32.4315 23.88V24.132C32.8635 24.144 33.2175 24.288 33.4935 24.564C33.7815 24.828 33.9255 25.23 33.9255 25.77V30H32.4315V25.95C32.4315 25.59 32.3295 25.314 32.1255 25.122C31.9335 24.93 31.6395 24.834 31.2435 24.834H26.8875V30H25.3755ZM26.8875 23.466H30.3255C31.1535 23.466 31.7895 23.268 32.2335 22.872C32.6895 22.464 32.9175 21.9 32.9175 21.18V21.054C32.9175 20.334 32.6955 19.776 32.2515 19.38C31.8075 18.972 31.1655 18.768 30.3255 18.768H26.8875V23.466ZM41.303 30.252C39.803 30.252 38.603 29.82 37.703 28.956C36.815 28.08 36.371 26.808 36.371 25.14V22.26C36.371 20.592 36.815 19.326 37.703 18.462C38.603 17.586 39.803 17.148 41.303 17.148C42.815 17.148 44.015 17.586 44.903 18.462C45.803 19.326 46.253 20.592 46.253 22.26V25.14C46.253 26.808 45.803 28.08 44.903 28.956C44.015 29.82 42.815 30.252 41.303 30.252ZM41.303 28.902C42.395 28.902 43.241 28.578 43.841 27.93C44.441 27.27 44.741 26.358 44.741 25.194V22.206C44.741 21.042 44.441 20.136 43.841 19.488C43.241 18.828 42.395 18.498 41.303 18.498C40.223 18.498 39.383 18.828 38.783 19.488C38.183 20.136 37.883 21.042 37.883 22.206V25.194C37.883 26.358 38.183 27.27 38.783 27.93C39.383 28.578 40.223 28.902 41.303 28.902ZM48.772 30V17.4H53.596C54.352 17.4 55.024 17.55 55.612 17.85C56.212 18.138 56.686 18.552 57.034 19.092C57.382 19.632 57.556 20.286 57.556 21.054V21.288C57.556 22.044 57.376 22.698 57.016 23.25C56.668 23.79 56.194 24.204 55.594 24.492C54.994 24.78 54.328 24.924 53.596 24.924H50.284V30H48.772ZM50.284 23.556H53.434C54.238 23.556 54.874 23.358 55.342 22.962C55.81 22.554 56.044 21.984 56.044 21.252V21.072C56.044 20.34 55.81 19.776 55.342 19.38C54.886 18.972 54.25 18.768 53.434 18.768H50.284V23.556ZM62.9871 30L66.8751 17.4H69.5391L73.4271 30H71.8611L70.8891 26.814H65.5251L64.5531 30H62.9871ZM65.9031 25.446H70.4931L68.3331 18.318H68.0811L65.9031 25.446ZM79.7095 30V17.4H82.5895L85.9375 29.046H86.1715L89.5195 17.4H92.3995V30H90.9415V18.39H90.6895L87.3595 30H84.7495L81.4195 18.39H81.1675V30H79.7095ZM95.2838 30V17.4H103.042V18.768H96.7958V22.98H102.538V24.348H96.7958V28.632H103.132V30H95.2838ZM109.62 30.252C108.708 30.252 107.892 30.09 107.172 29.766C106.452 29.442 105.882 28.956 105.462 28.308C105.054 27.648 104.85 26.826 104.85 25.842V25.464H106.344V25.842C106.344 26.886 106.65 27.666 107.262 28.182C107.874 28.686 108.66 28.938 109.62 28.938C110.604 28.938 111.354 28.716 111.87 28.272C112.386 27.828 112.644 27.27 112.644 26.598C112.644 26.13 112.524 25.758 112.284 25.482C112.056 25.206 111.732 24.984 111.312 24.816C110.892 24.636 110.4 24.48 109.836 24.348L108.9 24.114C108.168 23.922 107.52 23.688 106.956 23.412C106.392 23.136 105.948 22.776 105.624 22.332C105.312 21.876 105.156 21.294 105.156 20.586C105.156 19.878 105.33 19.266 105.678 18.75C106.038 18.234 106.536 17.838 107.172 17.562C107.82 17.286 108.564 17.148 109.404 17.148C110.256 17.148 111.018 17.298 111.69 17.598C112.374 17.886 112.908 18.318 113.292 18.894C113.688 19.458 113.886 20.172 113.886 21.036V21.792H112.392V21.036C112.392 20.424 112.26 19.932 111.996 19.56C111.744 19.188 111.39 18.912 110.934 18.732C110.49 18.552 109.98 18.462 109.404 18.462C108.576 18.462 107.91 18.648 107.406 19.02C106.902 19.38 106.65 19.896 106.65 20.568C106.65 21.012 106.758 21.372 106.974 21.648C107.19 21.924 107.496 22.152 107.892 22.332C108.288 22.5 108.762 22.65 109.314 22.782L110.25 23.016C110.982 23.172 111.636 23.388 112.212 23.664C112.8 23.928 113.268 24.294 113.616 24.762C113.964 25.218 114.138 25.818 114.138 26.562C114.138 27.306 113.952 27.954 113.58 28.506C113.208 29.058 112.68 29.49 111.996 29.802C111.324 30.102 110.532 30.252 109.62 30.252ZM120.659 30.252C119.747 30.252 118.931 30.09 118.211 29.766C117.491 29.442 116.921 28.956 116.501 28.308C116.093 27.648 115.889 26.826 115.889 25.842V25.464H117.383V25.842C117.383 26.886 117.689 27.666 118.301 28.182C118.913 28.686 119.699 28.938 120.659 28.938C121.643 28.938 122.393 28.716 122.909 28.272C123.425 27.828 123.683 27.27 123.683 26.598C123.683 26.13 123.563 25.758 123.323 25.482C123.095 25.206 122.771 24.984 122.351 24.816C121.931 24.636 121.439 24.48 120.875 24.348L119.939 24.114C119.207 23.922 118.559 23.688 117.995 23.412C117.431 23.136 116.987 22.776 116.663 22.332C116.351 21.876 116.195 21.294 116.195 20.586C116.195 19.878 116.369 19.266 116.717 18.75C117.077 18.234 117.575 17.838 118.211 17.562C118.859 17.286 119.603 17.148 120.443 17.148C121.295 17.148 122.057 17.298 122.729 17.598C123.413 17.886 123.947 18.318 124.331 18.894C124.727 19.458 124.925 20.172 124.925 21.036V21.792H123.431V21.036C123.431 20.424 123.299 19.932 123.035 19.56C122.783 19.188 122.429 18.912 121.973 18.732C121.529 18.552 121.019 18.462 120.443 18.462C119.615 18.462 118.949 18.648 118.445 19.02C117.941 19.38 117.689 19.896 117.689 20.568C117.689 21.012 117.797 21.372 118.013 21.648C118.229 21.924 118.535 22.152 118.931 22.332C119.327 22.5 119.801 22.65 120.353 22.782L121.289 23.016C122.021 23.172 122.675 23.388 123.251 23.664C123.839 23.928 124.307 24.294 124.655 24.762C125.003 25.218 125.177 25.818 125.177 26.562C125.177 27.306 124.991 27.954 124.619 28.506C124.247 29.058 123.719 29.49 123.035 29.802C122.363 30.102 121.571 30.252 120.659 30.252ZM126.462 30L130.35 17.4H133.014L136.902 30H135.336L134.364 26.814H129L128.028 30H126.462ZM129.378 25.446H133.968L131.808 18.318H131.556L129.378 25.446ZM143.006 30.252C142.07 30.252 141.242 30.06 140.522 29.676C139.814 29.28 139.256 28.704 138.848 27.948C138.452 27.192 138.254 26.256 138.254 25.14V22.26C138.254 20.592 138.698 19.326 139.586 18.462C140.474 17.586 141.668 17.148 143.168 17.148C144.656 17.148 145.79 17.556 146.57 18.372C147.35 19.188 147.74 20.28 147.74 21.648V21.738H146.246V21.612C146.246 21.012 146.138 20.478 145.922 20.01C145.706 19.542 145.37 19.176 144.914 18.912C144.458 18.636 143.876 18.498 143.168 18.498C142.1 18.498 141.266 18.828 140.666 19.488C140.066 20.136 139.766 21.048 139.766 22.224V25.176C139.766 26.352 140.066 27.27 140.666 27.93C141.266 28.578 142.106 28.902 143.186 28.902C144.242 28.902 145.016 28.602 145.508 28.002C146.012 27.402 146.264 26.604 146.264 25.608V25.302H142.448V24.006H147.74V30H146.372V28.632H146.12C145.988 28.896 145.802 29.154 145.562 29.406C145.322 29.658 144.998 29.862 144.59 30.018C144.182 30.174 143.654 30.252 143.006 30.252ZM150.497 30V17.4H158.255V18.768H152.009V22.98H157.751V24.348H152.009V28.632H158.345V30H150.497Z" fill="#FCF7F3"/>
<rect x="0.25" y="0.25" width="171.5" height="47.5" rx="23.75" stroke="url(#paint0_linear_230_226)" stroke-width="0.5"/>
<defs>
<linearGradient id="paint0_linear_230_226" x1="6.39189" y1="15" x2="76.541" y2="49.0221" gradientUnits="userSpaceOnUse">
<stop offset="0.327807" stop-color="#A7A7A7"/>
<stop offset="1" stop-color="#676767" stop-opacity="0.12"/>
</linearGradient>
</defs>
</svg>
